<?xml version="1.0" encoding="UTF-8" standalone="no"?>
<svg
   xmlns:dc="http://purl.org/dc/elements/1.1/"
   xmlns:cc="http://creativecommons.org/ns#"
   xmlns:rdf="http://www.w3.org/1999/02/22-rdf-syntax-ns#"
   xmlns:svg="http://www.w3.org/2000/svg"
   xmlns="http://www.w3.org/2000/svg"
   xmlns:sodipodi="http://sodipodi.sourceforge.net/DTD/sodipodi-0.dtd"
   xmlns:inkscape="http://www.inkscape.org/namespaces/inkscape"
   width="50mm"
   height="50mm"
   viewBox="0 0 50 50"
   version="1.1"
   id="svg8"
   inkscape:version="1.0.1 (3bc2e813f5, 2020-09-07)"
   sodipodi:docname="pygtogram.svg">
  <defs
     id="defs2" />
  <sodipodi:namedview
     id="base"
     pagecolor="#ffffff"
     bordercolor="#666666"
     borderopacity="1.0"
     inkscape:pageopacity="0.0"
     inkscape:pageshadow="2"
     inkscape:zoom="1.8675174"
     inkscape:cx="16.108061"
     inkscape:cy="202.99806"
     inkscape:document-units="mm"
     inkscape:current-layer="layer1"
     inkscape:document-rotation="0"
     showgrid="false"
     inkscape:pagecheckerboard="true"
     inkscape:window-width="1842"
     inkscape:window-height="1051"
     inkscape:window-x="2469"
     inkscape:window-y="-9"
     inkscape:window-maximized="1"
     units="mm"
     width="50in"
     showguides="false"
     inkscape:lockguides="false" />
  <metadata
     id="metadata5">
    <rdf:RDF>
      <cc:Work
         rdf:about="">
        <dc:format>image/svg+xml</dc:format>
        <dc:type
           rdf:resource="http://purl.org/dc/dcmitype/StillImage" />
        <dc:title></dc:title>
      </cc:Work>
    </rdf:RDF>
  </metadata>
  <g
     inkscape:groupmode="layer"
     id="layer3"
     inkscape:label="Calque 3"
     style="display:none;opacity:0.998">
    <rect
       style="display:inline;opacity:1;fill:none;fill-opacity:1;stroke:#808080;stroke-width:6;stroke-linecap:round;stroke-linejoin:round;stroke-miterlimit:4;stroke-dasharray:none;stroke-opacity:1;paint-order:stroke fill markers"
       id="rect998"
       width="33.945503"
       height="33.945503"
       x="-16.972752"
       y="25.453655"
       transform="rotate(-45)" />
    <rect
       style="display:inline;opacity:1;fill:none;fill-opacity:1;stroke:#808080;stroke-width:6.00038;stroke-linecap:round;stroke-linejoin:round;stroke-miterlimit:4;stroke-dasharray:none;stroke-opacity:1;paint-order:stroke fill markers"
       id="rect912-1"
       width="21.920212"
       height="21.920212"
       x="-10.960106"
       y="31.466301"
       transform="rotate(-45)" />
  </g>
  <g
     inkscape:label="Calque 1"
     inkscape:groupmode="layer"
     id="layer1"
     style="display:inline;opacity:0.994">
    <g
       id="g890"
       transform="matrix(0.97087426,0,0,0.97087426,-4.1350183,-4.1260891)">
      <path
         id="rect901"
         style="fill:#90caf9;fill-opacity:1;stroke:none;stroke-width:19.525;stroke-linecap:round;stroke-linejoin:round;paint-order:stroke fill markers"
         d="m 70.962891,118.10938 a 11.338583,11.338583 0 0 0 -8.113282,3.32226 11.338583,11.338583 0 0 0 -0.578125,15.4082 l 35.080078,35.08008 c 8.882878,8.88288 23.185488,8.88288 32.068358,0 l 34.7168,-34.7168 a 11.338583,11.338583 0 0 0 -0.25781,-15.77148 11.338583,11.338583 0 0 0 -16.03516,0.008 l -0.2832,0.28321 -0.0156,-0.0156 -26.14258,26.14258 c -4.4415,4.4415 -11.5917,4.4415 -16.0332,0 l -25.630859,-25.63086 -0.0332,0.0352 -0.822266,-0.82227 a 11.338583,11.338583 0 0 0 -7.919921,-3.32226 z"
         transform="scale(0.26458333)" />
      <rect
         style="fill:#0d47a1;fill-opacity:1;stroke:none;stroke-width:6.34227;stroke-linecap:round;stroke-linejoin:round;stroke-miterlimit:4;stroke-dasharray:none;paint-order:stroke fill markers"
         id="rect910"
         width="15.89554"
         height="15.89554"
         x="-7.9477706"
         y="34.478638"
         rx="2.9998364"
         ry="2.9998364"
         transform="rotate(-45)" />
      <path
         id="rect883"
         style="fill:#1e88e5;fill-opacity:1;stroke:none;stroke-width:41.455;stroke-linecap:round;stroke-linejoin:round;stroke-miterlimit:4;stroke-dasharray:none;paint-order:stroke fill markers"
         d="m 113.38672,16.0625 c -5.37237,0 -10.74268,1.886262 -15.068361,5.644531 l -70.585937,70.705078 -4.972656,4.972657 c -8.883342,8.883344 -8.883339,23.186974 0,32.070314 l 74.625,74.625 c 2.459086,2.45908 5.333164,4.23708 8.392574,5.33398 0.004,0.002 0.009,0.002 0.0137,0.004 5.61777,1.96755 11.83428,1.68472 17.27929,-0.84961 0.28141,-0.13098 0.5608,-0.27106 0.83789,-0.41406 0.19961,-0.10467 0.39858,-0.21123 0.59571,-0.32227 0.064,-0.0354 0.12769,-0.0713 0.1914,-0.10742 1.58347,-0.91235 3.08203,-2.0309 4.45703,-3.35742 l 50.78125,-50.83789 a 11.338583,11.338583 0 0 0 -0.008,-16.03516 11.338583,11.338583 0 0 0 -16.04101,0.008 l -2.03907,2.04102 -0.041,-0.0391 -32.40039,32.40039 c -8.88287,8.88288 -23.18549,8.88288 -32.068362,0 l -33.22461,-33.22461 -0.05664,0.0566 L 49.75,124.42969 l 0.0293,-0.0293 -2.994141,-2.99414 a 11.340435,11.340435 0 0 1 -0.65039,-15.32617 L 69.779297,82.396484 89.34375,62.878906 a 11.338583,11.338583 0 0 0 0.777344,-0.857422 l 15.230466,-15.255859 0.0195,0.01953 a 11.340454,11.340454 0 0 1 15.64649,-0.36914 11.340454,11.340454 0 0 1 0.0254,0.02344 l 0.36719,0.369141 a 11.338583,11.338583 0 0 0 16.0332,0.03711 11.338583,11.338583 0 0 0 0.0449,-16.033203 l -9.20703,-9.253906 C 123.98566,17.899165 118.68797,16.0625 113.38672,16.0625 Z"
         transform="scale(0.26458333)" />
    </g>
  </g>
  <g
     inkscape:groupmode="layer"
     id="layer2"
     inkscape:label="Calque 2"
     style="display:none">
    <rect
       style="display:inline;opacity:1;fill:#6c5353;fill-opacity:1;stroke:none;stroke-width:7.17661;stroke-linecap:round;stroke-linejoin:round;stroke-miterlimit:4;stroke-dasharray:none;stroke-opacity:1;paint-order:stroke fill markers"
       id="rect923-5-7"
       width="58.325325"
       height="15.457558"
       x="-30.970621"
       y="34.479187"
       transform="rotate(-45)"
       inkscape:transform-center-x="-2.4783446"
       inkscape:transform-center-y="1.1438521" />
  </g>
</svg>
